<?xml version="1.0" encoding="UTF-8" standalone="no"?>
<!-- Created with Inkscape (http://www.inkscape.org/) -->

<svg
   xmlns:dc="http://purl.org/dc/elements/1.1/"
   xmlns:cc="http://creativecommons.org/ns#"
   xmlns:rdf="http://www.w3.org/1999/02/22-rdf-syntax-ns#"
   xmlns:svg="http://www.w3.org/2000/svg"
   xmlns="http://www.w3.org/2000/svg"
   xmlns:xlink="http://www.w3.org/1999/xlink"
   xmlns:sodipodi="http://sodipodi.sourceforge.net/DTD/sodipodi-0.dtd"
   xmlns:inkscape="http://www.inkscape.org/namespaces/inkscape"
   width="1024"
   height="768"
   id="svg4942"
   version="1.1"
   inkscape:version="0.91 r13725"
   viewBox="0 0 1024 768"
   sodipodi:docname="error.svg">
  <defs
     id="defs4944">
    <linearGradient
       inkscape:collect="always"
       id="linearGradient4154">
      <stop
         style="stop-color:#2e00a8;stop-opacity:1"
         offset="0"
         id="stop4156" />
      <stop
         style="stop-color:#ff0071;stop-opacity:1"
         offset="1"
         id="stop4158" />
    </linearGradient>
    <linearGradient
       inkscape:collect="always"
       xlink:href="#linearGradient4154"
       id="linearGradient4160"
       x1="432.79572"
       y1="202.51114"
       x2="790.99194"
       y2="326.51114"
       gradientUnits="userSpaceOnUse" />
  </defs>
  <sodipodi:namedview
     id="base"
     pagecolor="#ffffff"
     bordercolor="#666666"
     borderopacity="1.0"
     inkscape:pageopacity="0.0"
     inkscape:pageshadow="2"
     inkscape:zoom="0.5"
     inkscape:cx="142"
     inkscape:cy="382"
     inkscape:current-layer="layer1"
     inkscape:document-units="px"
     showgrid="false"
     inkscape:window-width="1600"
     inkscape:window-height="851"
     inkscape:window-x="0"
     inkscape:window-y="23"
     inkscape:window-maximized="1" />
  <metadata
     id="metadata4947">
    <rdf:RDF>
      <cc:Work
         rdf:about="">
        <dc:format>image/svg+xml</dc:format>
        <dc:type
           rdf:resource="http://purl.org/dc/dcmitype/StillImage" />
        <dc:title />
      </cc:Work>
    </rdf:RDF>
  </metadata>
  <g
     id="layer1"
     inkscape:label="Layer 1"
     inkscape:groupmode="layer">
    <text
       xml:space="preserve"
       style="font-style:normal;font-variant:normal;font-weight:normal;font-stretch:normal;font-size:60px;line-height:125%;font-family:'Wawati TC';-inkscape-font-specification:'Wawati TC';letter-spacing:0px;word-spacing:0px;fill:#000000;fill-opacity:1;stroke:none;stroke-width:1px;stroke-linecap:butt;stroke-linejoin:miter;stroke-opacity:1"
       x="326"
       y="120"
       id="text5490"
       sodipodi:linespacing="125%"><tspan
         sodipodi:role="line"
         id="tspan5492"
         x="326"
         y="120">Oups...</tspan></text>
    <text
       xml:space="preserve"
       style="font-style:normal;font-variant:normal;font-weight:normal;font-stretch:normal;font-size:60px;line-height:125%;font-family:'Wawati TC';-inkscape-font-specification:'Wawati TC';letter-spacing:0px;word-spacing:0px;fill:#000000;fill-opacity:1;stroke:none;stroke-width:1px;stroke-linecap:butt;stroke-linejoin:miter;stroke-opacity:1"
       x="530"
       y="288"
       id="text5494"
       sodipodi:linespacing="125%"><tspan
         sodipodi:role="line"
         id="tspan5496"
         x="530"
         y="288">Error</tspan></text>
    <path
       style="fill:url(#linearGradient4160);fill-opacity:1;stroke:none;stroke-opacity:1"
       id="path4222"
       d="m 460.9968,217.59248 c -3.23685,17.07538 -5.24494,34.30868 -6.64128,51.62072 -0.97599,13.90942 -1.36607,27.84988 -1.46165,41.79027 -0.0171,4.44761 -0.01,8.89513 0.0403,13.3425 0.0322,2.85624 -0.28797,5.52007 0.84712,8.15683 9.20302,3.15189 19.90312,2.57777 29.46547,2.39421 5.56207,-0.10678 34.59687,-1.41093 38.51048,-1.58142 45.71227,-2.01098 91.44302,-3.60001 137.19071,-4.50597 34.26899,-0.19959 68.52515,-0.96701 102.77583,-2.07629 8.56647,-0.686 17.48984,0.0666 25.9454,-1.91591 1.45842,-0.34194 5.513,-2.29881 4.22239,-1.53838 -24.53877,14.45812 -26.94207,18.9803 -20.26073,9.16687 0.44272,-1.81417 1.03858,-3.59768 1.32815,-5.4425 0.90751,-5.78165 1.0616,-12.83748 1.02119,-18.57536 -0.0881,-12.5101 -1.23131,-24.96437 -2.31027,-37.41608 -0.86414,-9.18154 -1.92694,-18.34236 -2.94599,-27.50749 -0.4972,-4.47165 -0.97796,-8.75894 -2.14973,-13.09879 -0.50996,-0.67932 -0.83156,-1.55435 -1.52989,-2.03796 -4.24546,-2.94006 -14.61448,-3.97735 -19.1871,-4.54845 -11.96413,-1.49426 -20.28261,-1.77593 -32.74366,-2.55381 -63.45849,-4.96453 -127.07673,-7.17255 -190.68016,-9.26788 -27.09752,-0.70602 -54.18642,-1.69156 -81.27926,-2.55068 0,0 21.96333,-15.79172 21.96333,-15.79172 l 0,0 c 26.20513,1.78932 52.42453,3.3879 78.67313,4.39888 64.09084,3.13162 128.20251,5.82955 192.33002,8.09479 12.31044,0.36557 22.53958,0.41728 34.59693,1.57277 6.18615,0.59283 16.4357,1.41522 21.61688,5.74689 0.92722,0.7752 1.34223,2.01024 2.01334,3.01536 1.0371,4.65798 1.29812,9.12938 1.58982,13.89602 0.57177,9.34304 1.26896,18.67857 1.9946,28.01065 1.69909,20.55982 4.45344,41.36949 2.22632,61.97853 -0.46455,1.43754 -0.15906,3.44191 -1.39364,4.31264 -8.80915,6.21291 -18.40782,11.24395 -27.90203,16.349 -1.27102,0.68343 -2.79933,0.72955 -4.22876,0.92777 -8.22321,1.14027 -16.60837,0.45403 -24.8643,0.80068 -33.90513,0.41243 -67.80452,1.21431 -101.71367,1.2811 -45.63181,0.57466 -91.27305,1.48593 -136.82849,4.36017 -1.87151,0.11919 -36.10467,2.32208 -39.95591,2.48855 -7.60652,0.32878 -22.27651,1.45064 -29.88583,-1.55752 -1.26532,-0.50021 -2.2084,-1.58995 -3.3126,-2.38493 -0.40041,-0.93028 -1.00301,-1.79763 -1.20123,-2.79084 -0.19316,-0.9678 0.0397,-1.97339 0.0534,-2.96019 0.0794,-5.70328 0.0849,-11.40748 0.19765,-17.11032 0.3308,-14.1799 1.06442,-28.34289 2.38817,-42.4682 1.41644,-16.99766 3.18566,-33.94887 5.01344,-50.90325 0,0 26.47207,-13.12126 26.47207,-13.12126 z"
       inkscape:connector-curvature="0" />
  </g>
</svg>
