<?xml version="1.0" encoding="UTF-8" standalone="no"?>
<!-- Created with Inkscape (http://www.inkscape.org/) -->

<svg
   xmlns:dc="http://purl.org/dc/elements/1.1/"
   xmlns:cc="http://creativecommons.org/ns#"
   xmlns:rdf="http://www.w3.org/1999/02/22-rdf-syntax-ns#"
   xmlns:svg="http://www.w3.org/2000/svg"
   xmlns="http://www.w3.org/2000/svg"
   xmlns:xlink="http://www.w3.org/1999/xlink"
   xmlns:sodipodi="http://sodipodi.sourceforge.net/DTD/sodipodi-0.dtd"
   xmlns:inkscape="http://www.inkscape.org/namespaces/inkscape"
   width="1024"
   height="768"
   id="svg4942"
   version="1.1"
   inkscape:version="0.91 r13725"
   viewBox="0 0 1024 768"
   sodipodi:docname="error.svg">
  <defs
     id="defs4944">
    <linearGradient
       inkscape:collect="always"
       id="linearGradient4770">
      <stop
         style="stop-color:#ac155d;stop-opacity:1"
         offset="0"
         id="stop4772" />
      <stop
         style="stop-color:#f7ec22;stop-opacity:0"
         offset="1"
         id="stop4774" />
    </linearGradient>
    <linearGradient
       inkscape:collect="always"
       xlink:href="#linearGradient4770"
       id="linearGradient4776"
       x1="508.09782"
       y1="366.56466"
       x2="1013"
       y2="360.56467"
       gradientUnits="userSpaceOnUse"
       gradientTransform="translate(-18,-38)" />
  </defs>
  <sodipodi:namedview
     id="base"
     pagecolor="#ffffff"
     bordercolor="#666666"
     borderopacity="1.0"
     inkscape:pageopacity="0.0"
     inkscape:pageshadow="2"
     inkscape:zoom="0.99999999"
     inkscape:cx="466.4051"
     inkscape:cy="572.77023"
     inkscape:current-layer="layer1"
     inkscape:document-units="px"
     showgrid="false"
     inkscape:window-width="1280"
     inkscape:window-height="751"
     inkscape:window-x="0"
     inkscape:window-y="23"
     inkscape:window-maximized="1" />
  <metadata
     id="metadata4947">
    <rdf:RDF>
      <cc:Work
         rdf:about="">
        <dc:format>image/svg+xml</dc:format>
        <dc:type
           rdf:resource="http://purl.org/dc/dcmitype/StillImage" />
        <dc:title />
      </cc:Work>
    </rdf:RDF>
  </metadata>
  <g
     id="layer1"
     inkscape:label="Layer 1"
     inkscape:groupmode="layer">
    <g
       id="g4143"
       transform="translate(-286,-52)">
      <g
         id="g4764"
         transform="translate(-234,-138)">
        <path
           style="fill:url(#linearGradient4776);fill-opacity:1"
           d="m 814.1898,444.97437 c -7.4486,-4.54133 -8.0943,-15.22584 -1.2922,-21.38172 1.1563,-1.04644 2.0857,-2.62038 2.0652,-3.49764 -0.021,-0.87725 -2.158,-7.64501 -4.75,-15.03946 L 805.5,391.6111 l -4.9207,-1.24549 c -7.1027,-1.79777 -10.8777,-5.91418 -11.5506,-12.59525 l -0.5287,-5.24847 -17,-7.69352 c -9.35,-4.23144 -17.8175,-7.72387 -18.8167,-7.76095 -0.9992,-0.0371 -3.2492,0.9985 -5,2.30128 -4.1012,3.05176 -7.5298,3.82251 -11.6928,2.62858 -3.5057,-1.00542 -8.9905,-5.5768 -8.9905,-7.49324 0,-0.61698 -0.5625,-1.88332 -1.25,-2.81409 -1.1164,-1.51139 -7.2368,-1.90547 -57.25,-3.6862 -51.1778,-1.8222 -56.1017,-1.85678 -57.1813,-0.40162 -0.6497,0.87575 -0.9534,2.18635 -0.6747,2.91244 0.6177,1.60988 32.0128,23.48543 33.7055,23.48543 0.663,0 2.0931,-0.6175 3.178,-1.37223 3.7749,-2.62609 8.0924,-2.88948 12.8522,-0.78403 5.1535,2.27966 7.6278,6.13683 7.6056,11.8566 -0.02,5.0139 -1.7518,8.22122 -5.9999,11.10876 -2.8425,1.93218 -4.3961,2.28422 -8.4234,1.90875 -4.0981,-0.38209 -5.5012,-1.07506 -8.25,-4.07443 -3.2673,-3.56532 -3.6844,-5.14482 -3.3478,-12.67999 0.1554,-3.47983 -0.09,-3.70837 -15.3123,-14.24653 -8.5086,-5.89048 -16.0736,-10.93679 -16.8111,-11.21403 -1.7475,-0.65697 -12.9599,3.92517 -13.849,5.65969 -0.3771,0.73559 -2.3943,9.03517 -4.4827,18.4435 l -3.797,17.10607 3.9877,3.98768 c 2.1932,2.19323 4.2613,5.35545 4.5956,7.02715 1.5184,7.59195 -3.9323,15.13964 -11.5537,15.99868 -15.64242,1.76313 -20.73419,-19.89639 -5.95185,-25.31825 2.59058,-0.95017 5.20485,-2.32383 5.80955,-3.05259 0.6046,-0.72875 2.8395,-9.26136 4.9665,-18.96136 0.55522,-8.30673 7.4093,-14.80224 0.9007,-20.00993 -3.70278,-2.79471 -2.54467,-2.46633 -4.9041,-5.03158 -1.80385,-4.61939 -1.62987,-7.61947 -0.5625,-12.22934 l -17.58004,-10.57239 -17.58004,-10.5724 -3.0113,2.14423 c -9.68974,6.8997 -22.7025,-0.33058 -21.5036,-11.94804 0.75783,-7.34342 8.08789,-13.06951 15.05687,-11.76213 7.05866,1.32422 12.22559,8.02239 11.33134,14.68947 -0.36715,2.73732 -0.0536,4.16332 1.14016,5.18464 C 556.42228,318.33943 585.2257,335 586.9357,335 c 1.0007,0 2.3556,-0.64607 3.0109,-1.43572 0.6554,-0.78965 2.4794,-1.71857 4.0534,-2.06428 1.574,-0.34571 3.278,-1.16213 3.7866,-1.81428 0.9613,-1.23239 5.2425,-32.02848 5.1749,-37.22439 -0.029,-2.22994 -0.8317,-3.45529 -3.25,-4.96133 -1.7663,-1.1 -4.0454,-3.70707 -5.0646,-5.79349 -2.4352,-4.98494 -1.5301,-9.77216 2.7256,-14.41588 2.7008,-2.94714 4.0879,-3.6204 8.1895,-3.97503 8.9254,-0.77169 15.1615,5.57322 14.1652,14.41238 -0.5934,5.26485 -3.5206,8.77263 -9.4772,11.35701 -2.3375,1.01416 -4.2626,2.42243 -4.2781,3.12947 -0.015,0.70705 -1.1279,9.38554 -2.472,19.28554 l -2.444,18 3.722,3.23512 c 2.0472,1.77932 4.2677,3.24182 4.9345,3.25 1.1069,0.0136 32.7661,-16.31735 38.0376,-19.6211 1.8544,-1.16218 2.25,-2.30592 2.25,-6.50472 0,-4.58463 0.3886,-5.48321 3.8823,-8.97695 3.4116,-3.41154 4.454,-3.88235 8.5958,-3.88235 8.1423,0 13.7946,5.32676 13.7946,13 0,10.91215 -12.1581,16.81645 -21.4164,10.40042 l -3.7512,-2.59958 -19.6753,10.33775 c -10.8215,5.68576 -19.9049,10.93582 -20.1854,11.6668 -1.2778,3.3299 1.6566,3.64745 49.5348,5.36063 26.2465,0.93915 51.575,1.73599 56.2856,1.77076 l 8.5648,0.0632 1.6457,-3.45105 c 2.1573,-4.52409 5.97,-6.91192 12.0377,-7.53921 l 4.9307,-0.50974 8.8372,-19 c 4.8605,-10.45 8.8556,-19.71776 8.8782,-20.59501 0.023,-0.87726 -0.861,-2.41122 -1.9633,-3.40881 -4.8139,-4.35646 -4.472,-13.30217 0.7153,-18.71649 l 2.7504,-2.87086 -2.2853,-6.54812 c -1.2569,-3.60144 -4.0941,-11.23093 -6.3048,-16.95439 C 750.9976,237.37735 750.7422,237 747.8271,237 c -4.4141,0 -9.7885,-2.88936 -11.9414,-6.41997 -7.1814,-11.77666 6.8513,-25.8867 18.2164,-18.31683 7.3833,4.91768 8.6084,13.58008 2.8486,20.1402 -1.6229,1.84835 -2.9507,3.83112 -2.9507,4.40617 0,1.56379 11.0931,30.49414 12.2473,31.94043 0.5487,0.6875 2.405,1.25168 4.1251,1.25374 3.7618,0.004 9.0174,3.02286 10.7829,6.19275 0.7056,1.26693 1.5219,4.72312 1.8138,7.68042 l 0.5309,5.37691 7,3.977 c 3.85,2.18735 11.5462,6.40963 17.1027,9.38286 l 10.1028,5.40585 2.7547,-2.16688 c 3.7228,-2.92833 11.1916,-3.6012 15.4618,-1.39297 4.1941,2.16882 7.5238,9.23412 6.5155,13.82499 -1.4627,6.65934 -6.2225,10.70087 -12.6378,10.73064 -1.8149,0.008 -3.8187,0.34592 -4.4531,0.75 -0.6344,0.40408 -3.9538,7.03469 -7.3765,14.73469 -10.0381,22.58272 -9.2951,19.96026 -6.572,23.19655 1.3053,1.55122 3.0411,4.41874 3.8573,6.37227 l 1.4841,3.55187 46.8802,5.72379 c 25.7842,3.14809 47.1733,5.70844 47.5315,5.68966 0.3582,-0.0188 1.564,-1.58122 2.6797,-3.47209 2.7973,-4.74106 7.3334,-6.91537 13.0848,-6.27192 3.9187,0.43842 5.1859,1.19533 8.7282,5.2134 l 4.1439,4.70052 40.8561,-5.20147 c 22.4708,-2.86081 41.4413,-5.68071 42.1567,-6.26643 0.7153,-0.58573 1.1653,-2.22317 1,-3.63876 -0.2541,-2.17533 -3.6291,-4.62238 -21.8006,-15.80617 -11.825,-7.2778 -22.0074,-13.24561 -22.6276,-13.26179 -0.6201,-0.0162 -1.685,0.64234 -2.3664,1.46339 -1.9527,2.35276 -8.0504,3.60981 -12.0944,2.49322 -11.0702,-3.05664 -13.3325,-18.10024 -3.6131,-24.02652 9.5098,-5.79845 22.0425,2.2528 20.3158,13.05122 -0.4406,2.75501 -0.1797,4.10505 0.979,5.06668 3.9565,3.28359 41.9801,25.92258 43.5386,25.92258 0.9625,0 2.0324,-0.45682 2.3775,-1.01515 0.345,-0.55833 2.1556,-1.65368 4.0234,-2.4341 2.1341,-0.89167 3.5722,-2.27954 3.8701,-3.73485 0.2607,-1.27375 0.9547,-11.3159 1.5422,-22.3159 0.9947,-18.62617 0.9483,-20.06869 -0.6757,-21 -0.9591,-0.55 -3.4371,-2.63456 -5.5066,-4.63235 -3.3044,-3.18986 -3.7628,-4.20655 -3.7628,-8.34571 0,-8.10837 5.3262,-13.79467 12.9211,-13.79467 14.9881,0 18.3898,20.06662 4.3931,25.9148 -1.9861,0.82987 -3.459,2.25492 -3.7352,3.61403 -0.2508,1.23414 -0.9386,11.2439 -1.5285,22.2439 -1.0684,19.92513 -1.0644,20.00562 1.08,21.5 1.1839,0.825 3.7763,3.0333 5.761,4.90734 l 3.6085,3.40734 14.5,-3.63483 c 7.975,-1.99915 32.8375,-8.32786 55.25,-14.0638 30.0576,-7.69252 40.75,-10.07005 40.75,-9.06106 0,0.75236 -1.6875,1.80522 -3.75,2.33969 -2.0625,0.53447 -26.025,6.64179 -53.25,13.57181 -27.225,6.93003 -50.2864,12.84007 -51.2477,13.13343 -0.9612,0.29336 -1.9883,1.74089 -2.2824,3.21673 -0.2942,1.47584 -1.4334,4.46319 -2.5317,6.63856 l -1.9968,3.9552 7.2793,10.81563 7.2793,10.81563 4.1657,-0.56947 c 14.7795,-2.02041 22.5289,16.95078 10.0357,24.56828 -6.4649,3.94194 -15.3628,1.50375 -18.7513,-5.13825 -2.4667,-4.83514 -2.456,-7.48702 0.05,-12.40223 1.1,-2.15759 2,-4.29274 2,-4.74478 0,-0.45204 -3.1313,-5.48904 -6.9585,-11.19334 l -6.9584,-10.37145 -5.7916,0.11605 c -6.5889,0.13203 -10.4683,-1.81393 -12.8683,-6.45498 -1.1351,-2.19509 -2.1806,-2.8515 -4.5419,-2.8515 -2.879,0 -71.5859,8.33123 -78.6232,9.53367 -2.4893,0.42533 -3.3904,1.18219 -3.8813,3.26013 -1.0857,4.59529 -5.1317,9.0525 -9.3702,10.32236 -3.3016,0.98921 -4.6695,0.9024 -8.4338,-0.53522 -4.4708,-1.70741 -8.5728,-6.43965 -8.5728,-9.88996 0,-0.86512 -0.5124,-1.88962 -1.1386,-2.27666 -0.6263,-0.38704 -22.1138,-3.31305 -47.75,-6.50224 -46.5798,-5.79462 -46.6124,-5.79716 -48.1114,-3.7638 -0.825,1.11911 -2.7536,3.42713 -4.2857,5.12893 -1.5322,1.70181 -2.6186,3.57313 -2.4143,4.15849 0.2043,0.58537 2.5218,7.23058 5.1501,14.76714 l 4.7786,13.70284 5.3502,1.1107 c 6.1723,1.28136 9.9388,4.89561 11.0007,10.55601 2.0903,11.14266 -10.5106,19.42514 -20.3898,13.40198 z M 793.1485,367.3577 c 1.999,-1.91511 4.1419,-2.77527 7.7864,-3.12547 2.7657,-0.26574 5.4288,-0.98921 5.918,-1.6077 1.109,-1.40185 15.1471,-33.10705 15.1471,-34.20975 0,-0.44294 -1.2087,-2.06701 -2.6861,-3.60904 -2.1438,-2.23767 -2.7731,-4.00664 -3.1171,-8.76215 l -0.431,-5.95845 -16.4595,-9.04257 C 790.2536,296.06916 782.3883,292 781.8278,292 c -0.5605,0 -2.3574,0.95297 -3.9931,2.11771 -1.6357,1.16475 -5.2635,2.40225 -8.0618,2.75 l -5.0877,0.63229 -8.9971,19.39326 c -7.3566,15.85711 -8.7827,19.68623 -7.8212,21 2.5771,3.52145 5.0904,9.77305 5.1111,12.71395 0.022,3.0522 0.3363,3.25008 17.772,11.176 9.7625,4.43783 18.1754,8.10208 18.6953,8.14279 0.5199,0.0407 2.1864,-1.11504 3.7032,-2.5683 z"
           id="path4766"
           inkscape:connector-curvature="0"
           sodipodi:nodetypes="cscscsccscssscsccsssccsccsccscscsscccccccsssscscscssccssscscccsscssscssssccscsccccssscscscccccsscssccsscccsccsscsccsccsscsscscssssscsscscsssssccccccssscsscscssccsscsscsscsscccscscscsssscsccscc" />
      </g>
    </g>
    <text
       xml:space="preserve"
       style="font-style:normal;font-variant:normal;font-weight:normal;font-stretch:normal;font-size:60px;line-height:125%;font-family:'Wawati TC';-inkscape-font-specification:'Wawati TC';letter-spacing:0px;word-spacing:0px;fill:#000000;fill-opacity:1;stroke:none;stroke-width:1px;stroke-linecap:butt;stroke-linejoin:miter;stroke-opacity:1"
       x="326"
       y="120"
       id="text5490"
       sodipodi:linespacing="125%"><tspan
         sodipodi:role="line"
         id="tspan5492"
         x="326"
         y="120">Oups...</tspan></text>
    <text
       xml:space="preserve"
       style="font-style:normal;font-variant:normal;font-weight:normal;font-stretch:normal;font-size:60px;line-height:125%;font-family:'Wawati TC';-inkscape-font-specification:'Wawati TC';letter-spacing:0px;word-spacing:0px;fill:#000000;fill-opacity:1;stroke:none;stroke-width:1px;stroke-linecap:butt;stroke-linejoin:miter;stroke-opacity:1"
       x="530"
       y="288"
       id="text5494"
       sodipodi:linespacing="125%"><tspan
         sodipodi:role="line"
         id="tspan5496"
         x="530"
         y="288">Error</tspan></text>
  </g>
</svg>
